<svg width="250" height="250" viewBox="0 0 250 250" fill="none" xmlns="http://www.w3.org/2000/svg">
<path d="M101.398 44.3779C100.565 45.5158 78.9643 76.2402 53.3769 112.702L6.90308 178.892V181.784V184.677H10.7709C21.72 184.677 34.5136 182.543 42.5469 179.366C52.0678 175.62 51.0562 176.806 84.1413 131.193C100.327 108.909 114.192 89.5162 115.025 88.0463C117.286 83.9687 119.369 76.8566 119.785 71.8307C120.559 62.1582 116.572 53.671 107.824 46.3693L102.945 42.2916L101.398 44.3779ZM106.753 57.9383C111.335 63.6754 111.752 71.8781 107.943 81.3135C107.11 83.3523 96.7564 98.0507 76.6436 125.646C60.1605 148.31 46.1767 167.418 45.5817 168.082C43.737 170.215 39.8096 172.207 35.0492 173.487C30.5863 174.625 21.1249 176.237 20.7084 175.905C20.5298 175.763 101.338 59.7875 103.659 56.753C104.135 56.184 104.611 55.7099 104.73 55.7099C104.849 55.7099 105.742 56.7056 106.753 57.9383Z" fill="#383B5B"/>
<path d="M141.564 46.3692C133.055 53.5762 129.841 60.0245 129.841 69.9341C129.841 76.5247 131.091 81.6928 134.126 87.4299C135.078 89.1369 149.062 108.814 165.247 131.098C198.392 176.806 197.38 175.62 206.901 179.366C214.934 182.543 227.728 184.677 238.677 184.677H242.545V181.784V178.892L194.881 111.042C168.699 73.6798 147.039 42.9554 146.801 42.7658C146.503 42.5761 144.182 44.1882 141.564 46.3692ZM187.443 116.305C210.293 149.021 228.859 175.81 228.74 175.905C228.323 176.237 218.862 174.625 214.399 173.487C209.638 172.207 205.711 170.215 203.807 168.082C203.271 167.418 189.287 148.31 172.804 125.646C152.751 98.0981 142.338 83.3523 141.505 81.3135C139.66 76.6669 139.005 73.585 139.005 69.2703C139.005 64.6711 140.195 61.1151 142.695 57.9383C144.182 56.0891 144.658 55.7572 145.253 56.2788C145.61 56.6107 164.652 83.6368 187.443 116.305Z" fill="#383B5B"/>
<path d="M121.511 97.2921C120.44 97.861 117.643 101.085 113.596 106.68C94.3762 132.853 70.574 165.663 70.2169 166.375C69.9194 167.038 70.455 167.133 74.7989 167.133L79.7973 167.086L99.7317 139.775C110.681 124.792 120.321 112.085 121.094 111.611C123.058 110.331 126.628 110.426 128.532 111.753C129.365 112.37 138.351 124.271 148.526 138.211C158.702 152.15 167.747 164.383 168.58 165.426L170.067 167.275L174.233 166.991C176.553 166.849 178.517 166.612 178.636 166.517C178.993 166.232 129.722 98.8093 128.413 97.8136C126.807 96.5334 123.593 96.2489 121.511 97.2921Z" fill="#383B5B"/>
<path d="M121.451 124.84C119.845 125.693 116.155 130.435 100.148 152.53L98.5416 154.806H102.231H105.98L112.525 145.749C116.155 140.771 119.845 136.172 120.737 135.555C121.689 134.892 123.177 134.417 124.189 134.417C127.878 134.417 128.889 135.366 136.03 145.275L142.873 154.758L146.622 154.806H150.43L149.3 153.241C148.645 152.435 144.063 146.081 139.005 139.159C134.007 132.236 129.306 126.12 128.651 125.504C126.807 123.986 123.712 123.702 121.451 124.84Z" fill="#383B5B"/>
<path d="M54.924 200.56L50.4016 208.858H53.0794C55.5191 208.858 55.8166 208.715 56.3522 207.435L57.0067 206.013H61.8862C66.7656 206.013 66.7656 206.013 67.4202 207.435C68.0153 208.715 68.3128 208.858 70.7525 208.858H73.4303L69.5624 201.603C67.4797 197.668 65.4565 193.922 65.159 193.306C64.7424 192.452 64.2069 192.263 62.0647 192.263H59.4465L54.924 200.56ZM64.3854 201.556C64.7424 202.646 64.6234 202.694 61.7077 202.694H58.6729L59.9225 200.181C60.6366 198.853 61.3506 197.431 61.5291 197.052C61.8862 196.34 63.6118 199.138 64.3854 201.556Z" fill="#383B5B"/>
<path d="M78.3097 200.56V208.858H83.5462C92.2935 208.858 96.3399 207.103 98.0655 202.646C99.5532 198.569 96.2804 193.922 90.9844 192.784C89.7348 192.5 86.4024 192.263 83.5462 192.263H78.3097V200.56ZM91.4604 196.957C92.8886 198.095 93.1861 198.759 93.1861 200.56C93.1861 202.362 92.8886 203.026 91.4604 204.164C89.9728 205.302 89.2587 205.539 86.7 205.539H83.6652V200.56V195.582H86.7C89.2587 195.582 89.9728 195.819 91.4604 196.957Z" fill="#383B5B"/>
<path d="M105.682 200.56V209L111.514 208.763C115.203 208.621 117.94 208.241 119.19 207.767C124.426 205.586 126.093 199.944 122.701 195.961C120.559 193.401 118.178 192.595 111.573 192.358L105.682 192.121V200.56ZM117.345 195.392C122.344 197.289 122.463 203.784 117.524 205.776C116.393 206.297 114.549 206.487 112.347 206.392L108.955 206.25L108.777 201.082C108.717 198.19 108.777 195.582 108.896 195.25C109.372 194.349 114.846 194.444 117.345 195.392Z" fill="#383B5B"/>
<path d="M137.815 192.784C127.58 195.25 127.878 206.392 138.232 208.336C147.991 210.233 155.548 202.315 150.073 195.961C147.753 193.258 142.1 191.789 137.815 192.784ZM146.563 196.72C148.169 198.095 148.526 198.806 148.526 200.56C148.526 202.362 148.169 203.026 146.503 204.496C144.599 206.108 144.242 206.25 141.088 206.25C137.934 206.25 137.577 206.108 135.673 204.496C132.995 202.125 132.817 199.28 135.257 197.004C137.28 195.06 138.708 194.586 141.981 194.823C144.063 194.965 145.015 195.345 146.563 196.72Z" fill="#383B5B"/>
<path d="M159.237 200.56V208.858H160.665C162.034 208.858 162.153 208.668 162.331 206.345L162.51 203.879L166.675 203.595C173.161 203.215 175.304 201.793 175.304 197.858C175.304 193.733 172.269 192.31 163.581 192.263H159.237V200.56ZM171.495 195.819C171.971 196.293 172.328 197.384 172.328 198.237C172.328 200.465 170.603 201.271 165.961 201.271H162.212V198.284C162.212 196.625 162.391 195.108 162.688 194.918C162.927 194.728 164.831 194.633 166.913 194.728C169.71 194.871 170.9 195.155 171.495 195.819Z" fill="#383B5B"/>
<path d="M183.039 200.56V208.858H190.478H197.916V207.672C197.916 206.534 197.856 206.534 192.144 206.392L186.312 206.25L186.134 203.974L185.955 201.746H191.013C196.071 201.746 196.131 201.746 196.131 200.56C196.131 199.422 196.012 199.422 191.251 199.28L186.312 199.138V197.004V194.871L191.846 194.728C197.202 194.586 197.321 194.586 197.321 193.448V192.263H190.18H183.039V200.56Z" fill="#383B5B"/>
</svg>
