<svg width="88" height="81" viewBox="0 0 88 81" fill="none" xmlns="http://www.w3.org/2000/svg">
<path d="M73.5624 72.7991C70.7034 72.7991 68.3855 70.6655 68.3855 68.034V62.0675H78.7392V68.034C78.7392 70.6655 76.4213 72.7991 73.5624 72.7991Z" fill="#9E9E9E"/>
<path d="M20.8414 42.9038H14.3661C13.8357 42.9038 13.3689 42.582 13.2201 42.1134L12.4893 39.8144C12.2655 39.1107 12.8389 38.4067 13.6353 38.4067H20.841C21.5003 38.4067 22.0352 38.8987 22.0352 39.5059V41.8049C22.0352 42.4117 21.5007 42.9038 20.8414 42.9038V42.9038Z" fill="#9E9E9E"/>
<path d="M67.159 42.9038H73.6339C74.1643 42.9038 74.6311 42.582 74.78 42.1134L75.5108 39.8144C75.7346 39.1107 75.1612 38.4067 74.3647 38.4067H67.159C66.4997 38.4067 65.9648 38.8987 65.9648 39.5059V41.8049C65.9652 42.4117 66.4997 42.9038 67.159 42.9038V42.9038Z" fill="#CECECE"/>
<path d="M14.4381 72.7991C11.5791 72.7991 9.26123 70.6655 9.26123 68.034V62.0675H19.615V68.034C19.615 70.6655 17.2971 72.7991 14.4381 72.7991V72.7991Z" fill="#9E9E9E"/>
<path d="M14.303 68.034V62.0675H9.26123V68.034C9.26123 70.6655 11.5791 72.7991 14.4381 72.7991C15.3539 72.7991 16.2125 72.5782 16.9588 72.1941C15.3752 71.379 14.303 69.8226 14.303 68.034Z" fill="#707070"/>
<path d="M73.6976 68.034V62.0675H78.7393V68.034C78.7393 70.6655 76.4214 72.7991 73.5625 72.7991C72.6467 72.7991 71.788 72.5782 71.0417 72.1941C72.6254 71.379 73.6976 69.8226 73.6976 68.034Z" fill="#CECECE"/>
<path d="M76.0024 48.114L68.8599 42.9047L66.0013 37.461C64.7958 35.1651 62.2692 33.7062 59.4989 33.7062H28.5013C25.7306 33.7062 23.2044 35.1651 21.9989 37.461L19.1403 42.9047L11.9978 48.114C10.2691 49.3749 9.26123 51.2939 9.26123 53.324V63.3265C9.26123 64.5377 10.3279 65.5196 11.6438 65.5196H76.3564C77.6723 65.5196 78.7389 64.5377 78.7389 63.3265V53.324C78.7393 51.2939 77.7314 49.3749 76.0024 48.114Z" fill="#63BCE7"/>
<path d="M76.0025 48.1134L68.8601 42.9041H19.1408L11.9983 48.1134C10.2696 49.3742 9.26172 51.2932 9.26172 53.3233V63.3259C9.26172 64.5371 10.3284 65.5189 11.6443 65.5189H76.3569C77.6728 65.5189 78.7395 64.5371 78.7395 63.3259V53.3233C78.7395 51.2932 77.7316 49.3742 76.0025 48.1134V48.1134Z" fill="#0038FF"/>
<path d="M14.3032 63.3259V53.3233C14.3032 51.2929 15.311 49.3742 17.0397 48.1134L24.1822 42.9041H19.1407L11.9983 48.1134C10.2696 49.3742 9.26172 51.2932 9.26172 53.3233V63.3259C9.26172 64.5371 10.3284 65.5189 11.6443 65.5189H16.686C15.3698 65.5192 14.3032 64.5371 14.3032 63.3259Z" fill="#6377E7"/>
<path d="M73.6974 63.3259V53.3233C73.6974 51.2929 72.6895 49.3742 70.9608 48.1134L63.8184 42.9041H68.8601L76.0026 48.1134C77.7313 49.3742 78.7392 51.2932 78.7392 53.3233V63.3259C78.7392 64.5371 77.6725 65.5189 76.3566 65.5189H71.3149C72.6307 65.5192 73.6974 64.5371 73.6974 63.3259Z" fill="#63E2E7"/>
<path d="M68.8598 42.9038L66.0012 37.46C64.7956 35.1641 62.2694 33.7052 59.4988 33.7052H28.5011C25.7305 33.7052 23.2043 35.1641 21.9988 37.46L19.1401 42.9038H68.8598Z" fill="#F8AF23"/>
<path d="M33.5429 33.7056H28.5011C25.7305 33.7056 23.2043 35.1645 21.9988 37.4604L19.1401 42.9041H24.1819L27.0405 37.4604C28.2461 35.1642 30.7723 33.7056 33.5429 33.7056V33.7056Z" fill="#F87023"/>
<path d="M54.4575 33.7056H59.4993C62.2699 33.7056 64.7961 35.1645 66.0017 37.4604L68.8603 42.9041H63.8185L60.9599 37.4604C59.7544 35.1642 57.2281 33.7056 54.4575 33.7056V33.7056Z" fill="#F8D323"/>
<path d="M55.0553 60.7643H32.9453C32.2801 60.7643 31.6449 61.0203 31.1939 61.4705L27.1362 65.5192H60.8639L56.8063 61.4705C56.3553 61.0203 55.7204 60.7643 55.0553 60.7643Z" fill="#F46275"/>
<path d="M16.3329 55.2177H14.4553C13.8029 55.2177 13.2742 54.731 13.2742 54.1305V50.9667C13.2742 50.3662 13.8029 49.8796 14.4553 49.8796H16.3329C16.9853 49.8796 17.514 50.3662 17.514 50.9667V54.1305C17.514 54.7307 16.9853 55.2177 16.3329 55.2177V55.2177Z" fill="#F8AF23"/>
<path d="M73.5453 55.2177H71.6677C71.0153 55.2177 70.4866 54.731 70.4866 54.1305V50.9667C70.4866 50.3662 71.0153 49.8796 71.6677 49.8796H73.5453C74.1977 49.8796 74.7264 50.3662 74.7264 50.9667V54.1305C74.7264 54.7307 74.1977 55.2177 73.5453 55.2177Z" fill="#F8AF23"/>
<path d="M34.583 14.2902H42.3528V7.60892C42.3528 6.01866 43.7536 4.72931 45.4813 4.72931C47.209 4.72931 48.6097 6.01866 48.6097 7.60892V29.0954H34.583V14.2902Z" fill="#F8AF23"/>
<path d="M46.8167 14.256H50.4714C52.1015 14.256 53.4229 15.4722 53.4229 16.9726V26.3788C53.4229 27.8792 52.1015 29.0954 50.4714 29.0954H46.8167C45.1866 29.0954 43.8652 27.8792 43.8652 26.3788V16.9726C43.8652 15.4722 45.1866 14.256 46.8167 14.256V14.256Z" fill="#F8AF23"/>
<path d="M16.8001 28.5C22.7719 28.5 27.6131 24.0439 27.6131 18.5471C27.6131 13.0503 22.7719 8.59424 16.8001 8.59424C10.8282 8.59424 5.98706 13.0503 5.98706 18.5471C5.98706 24.0439 10.8282 28.5 16.8001 28.5Z" fill="#F8AF23"/>
<path d="M11.0285 18.5471C11.0285 13.8494 14.5653 9.9146 19.3208 8.86888C18.5116 8.69106 17.6684 8.59424 16.8001 8.59424C10.8281 8.59424 5.98706 13.0502 5.98706 18.5471C5.98706 24.044 10.8281 28.5 16.8001 28.5C17.6684 28.5 18.5119 28.4032 19.3208 28.2253C14.5653 27.1793 11.0285 23.2445 11.0285 18.5471Z" fill="#F87023"/>
<path d="M71.2 28.5C77.1718 28.5 82.013 24.0439 82.013 18.5471C82.013 13.0503 77.1718 8.59424 71.2 8.59424C65.2281 8.59424 60.387 13.0503 60.387 18.5471C60.387 24.0439 65.2281 28.5 71.2 28.5Z" fill="#F8AF23"/>
<path d="M76.9717 18.5471C76.9717 13.8494 73.4349 9.9146 68.6794 8.86888C69.4886 8.69106 70.3318 8.59424 71.2002 8.59424C77.1721 8.59424 82.0132 13.0502 82.0132 18.5471C82.0132 24.044 77.1721 28.5 71.2002 28.5C70.3318 28.5 69.4883 28.4032 68.6794 28.2253C73.4349 27.1793 76.9717 23.2445 76.9717 18.5471Z" fill="#F8D323"/>
<path d="M9.39239 75.7964H3.20386C2.91889 75.7964 2.68823 76.0087 2.68823 76.271C2.68823 76.5333 2.91889 76.7456 3.20386 76.7456H9.39239C9.67736 76.7456 9.90801 76.5333 9.90801 76.271C9.90801 76.0087 9.67736 75.7964 9.39239 75.7964Z" fill="#3F3679"/>
<path d="M84.7962 75.7964H78.6077C78.3227 75.7964 78.092 76.0087 78.092 76.271C78.092 76.5333 78.3227 76.7456 78.6077 76.7456H84.7962C85.0812 76.7456 85.3118 76.5333 85.3118 76.271C85.3118 76.0087 85.0812 75.7964 84.7962 75.7964Z" fill="#3F3679"/>
<path d="M75.1023 75.7964H12.8979C12.613 75.7964 12.3823 76.0087 12.3823 76.271C12.3823 76.5333 12.613 76.7456 12.8979 76.7456H75.1026C75.3876 76.7456 75.6182 76.5333 75.6182 76.271C75.6182 76.0087 75.3872 75.7964 75.1023 75.7964Z" fill="#3F3679"/>
<path d="M3.20386 73.2736H84.7964C85.0813 73.2736 85.312 73.0613 85.312 72.799C85.312 72.5367 85.0813 72.3244 84.7964 72.3244H76.82C78.2899 71.3762 79.2548 69.808 79.2548 68.034V63.3258V62.0672V53.3233C79.2548 51.135 78.1861 49.1002 76.3226 47.7409L70.341 43.378H73.6341C74.3883 43.378 75.0631 42.9126 75.2748 42.2462L76.0056 39.9472C76.1583 39.4669 76.0589 38.9619 75.733 38.5617C75.4072 38.1614 74.9084 37.9317 74.3649 37.9317H67.1592C67.0503 37.9317 66.943 37.9421 66.8375 37.9605L66.4659 37.253C65.1827 34.8091 62.4481 33.2302 59.4991 33.2302H28.5011C25.5524 33.2302 22.8179 34.8094 21.5343 37.253L21.1617 37.963C21.0562 37.9444 20.9493 37.9317 20.841 37.9317H13.6353C13.0918 37.9317 12.593 38.1614 12.2672 38.5617C11.9413 38.9619 11.842 39.4672 11.9946 39.9472L12.7254 42.2462C12.9371 42.9126 13.6119 43.378 14.3661 43.378H17.6592L11.6776 47.7409C9.81417 49.1002 8.74545 51.135 8.74545 53.3233V62.0672V63.3258V68.034C8.74545 69.8077 9.71036 71.3758 11.1802 72.3244H3.20386C2.91889 72.3244 2.68823 72.5367 2.68823 72.799C2.68823 73.0613 2.91889 73.2736 3.20386 73.2736V73.2736ZM17.6957 72.3244C19.1655 71.3762 20.1305 69.808 20.1305 68.034V65.9938H27.1361H60.8638H67.8694V68.034C67.8694 69.8077 68.8343 71.3758 70.3042 72.3244H17.6957ZM28.3134 65.0446L31.5729 61.7922C31.9252 61.4407 32.4254 61.2388 32.9451 61.2388H55.0548C55.5745 61.2388 56.0747 61.4407 56.427 61.7922L59.6865 65.0446H28.3134ZM73.5623 72.3244C70.992 72.3244 68.901 70.3997 68.901 68.034V65.9938H76.3563C77.0675 65.9938 77.7186 65.7558 78.2235 65.3632V68.034C78.2235 70.3997 76.1325 72.3244 73.5623 72.3244V72.3244ZM68.6803 43.3783L72.6176 46.25L69.2021 48.0586C67.7065 48.8509 66.4401 49.908 65.4388 51.2008C64.5625 52.332 63.1384 53.0072 61.629 53.0072H26.3716C24.8622 53.0072 23.4377 52.332 22.5618 51.2008C21.5605 49.908 20.2941 48.8509 18.7984 48.0586L15.3829 46.2497L19.3202 43.378H20.8413H68.6803V43.3783ZM74.3649 38.8812C74.5805 38.8812 74.7785 38.9724 74.9077 39.1312C75.037 39.29 75.0765 39.4906 75.016 39.6811L74.2852 41.9801C74.201 42.2446 73.9335 42.4291 73.6341 42.4291H69.1832L67.3205 38.8812H74.3649ZM28.5011 34.1798H59.4991C62.0549 34.1798 64.425 35.5485 65.5371 37.6666L68.0379 42.4291H20.841H19.962L22.4628 37.6666C23.5755 35.5485 25.9453 34.1798 28.5011 34.1798V34.1798ZM13.715 41.9801L12.9842 39.6811C12.9237 39.4906 12.9629 39.2904 13.0925 39.1312C13.2218 38.9724 13.4198 38.8812 13.6353 38.8812H20.6798L18.817 42.4291H14.3661C14.0667 42.4291 13.7993 42.2446 13.715 41.9801V41.9801ZM9.7767 53.3233C9.7767 51.4267 10.7031 49.6631 12.318 48.4851L14.5139 46.8835C14.5187 46.886 14.5225 46.8898 14.5273 46.8923L18.2838 48.8816C19.6502 49.6052 20.807 50.5709 21.7217 51.752C22.7907 53.1325 24.5291 53.9567 26.3712 53.9567H61.6283C63.4705 53.9567 65.2088 53.1328 66.2779 51.7523C67.1929 50.5712 68.3493 49.6055 69.7157 48.8819L73.4722 46.8926C73.477 46.8901 73.4808 46.8866 73.4856 46.8838L75.6815 48.4854C77.2968 49.6634 78.2232 51.4267 78.2232 53.3236V62.0675V63.3262C78.2232 64.2738 77.3855 65.0449 76.3559 65.0449H61.0893L57.1846 61.149C56.6377 60.6032 55.8609 60.2899 55.0544 60.2899H32.9451C32.1383 60.2899 31.3618 60.6032 30.8149 61.149L26.9102 65.0449H11.644C10.6144 65.0449 9.7767 64.2738 9.7767 63.3262V62.0675V53.3233ZM9.7767 68.034V65.3632C10.2817 65.7558 10.9327 65.9938 11.644 65.9938H19.0992V68.034C19.0992 70.3997 17.0082 72.3244 14.438 72.3244C11.8677 72.3244 9.7767 70.3997 9.7767 68.034Z" fill="#3F3679"/>
<path d="M14.455 55.6922H16.3326C17.2683 55.6922 18.0294 54.9917 18.0294 54.1304V50.9667C18.0294 50.1054 17.2683 49.4049 16.3326 49.4049H14.455C13.5194 49.4049 12.7583 50.1054 12.7583 50.9667V54.1304C12.7583 54.9914 13.5194 55.6922 14.455 55.6922ZM13.7896 50.9667C13.7896 50.6291 14.0883 50.3541 14.455 50.3541H16.3326C16.6994 50.3541 16.9981 50.6291 16.9981 50.9667V54.1304C16.9981 54.468 16.6994 54.743 16.3326 54.743H14.455C14.0883 54.743 13.7896 54.468 13.7896 54.1304V50.9667Z" fill="#3F3679"/>
<path d="M71.6675 55.6922H73.545C74.4807 55.6922 75.2418 54.9917 75.2418 54.1304V50.9667C75.2418 50.1054 74.4807 49.4049 73.545 49.4049H71.6675C70.7318 49.4049 69.9707 50.1054 69.9707 50.9667V54.1304C69.9707 54.9914 70.7318 55.6922 71.6675 55.6922ZM71.002 50.9667C71.002 50.6291 71.3007 50.3541 71.6675 50.3541H73.545C73.9118 50.3541 74.2105 50.6291 74.2105 50.9667V54.1304C74.2105 54.468 73.9118 54.743 73.545 54.743H71.6675C71.3007 54.743 71.002 54.468 71.002 54.1304V50.9667Z" fill="#3F3679"/>
<path d="M34.5828 29.5701H46.8165H48.6095H50.4712C52.3832 29.5701 53.9383 28.1386 53.9383 26.3788V16.9727C53.9383 15.2128 52.3832 13.7814 50.4712 13.7814H49.1251V7.60862C49.1251 5.75922 47.4902 4.25439 45.481 4.25439C43.4718 4.25439 41.8369 5.75922 41.8369 7.60862V13.8156H34.5828C34.2978 13.8156 34.0671 14.0279 34.0671 14.2902V29.0955C34.0671 29.3578 34.2981 29.5701 34.5828 29.5701ZM52.9074 16.9727V26.3788C52.9074 27.615 51.8146 28.6208 50.4716 28.6208H48.6098H46.8168C45.6192 28.6208 44.6227 27.8203 44.4205 26.7705H49.6868C49.9718 26.7705 50.2024 26.5582 50.2024 26.2959C50.2024 26.0336 49.9718 25.8213 49.6868 25.8213H44.3807V23.6906H49.6868C49.9718 23.6906 50.2024 23.4783 50.2024 23.216C50.2024 22.9537 49.9718 22.7414 49.6868 22.7414H44.3807V20.6104H49.6868C49.9718 20.6104 50.2024 20.3981 50.2024 20.1358C50.2024 19.8735 49.9718 19.6612 49.6868 19.6612H44.3807V17.5305H49.6868C49.9718 17.5305 50.2024 17.3182 50.2024 17.0559C50.2024 16.7936 49.9718 16.5813 49.6868 16.5813H44.4205C44.6227 15.5314 45.6189 14.7309 46.8168 14.7309H50.4716C51.8146 14.7306 52.9074 15.7365 52.9074 16.9727ZM35.0984 14.7648H42.3525C42.6375 14.7648 42.8682 14.5525 42.8682 14.2902V7.60862C42.8682 6.28256 44.0404 5.20361 45.481 5.20361C46.9217 5.20361 48.0939 6.28256 48.0939 7.60862V13.7814H46.8165C44.9045 13.7814 43.3494 15.2128 43.3494 16.9727V26.3788C43.3494 27.2521 43.733 28.044 44.3528 28.6208H35.0984V14.7648Z" fill="#3F3679"/>
<path d="M16.8001 28.9746C23.0467 28.9746 28.129 24.2968 28.129 18.5467C28.129 12.797 23.047 8.11926 16.8001 8.11926C10.5534 8.11926 5.47144 12.797 5.47144 18.5467C5.47144 24.2968 10.5534 28.9746 16.8001 28.9746ZM16.8001 9.0688C22.4781 9.0688 27.0978 13.3207 27.0978 18.5471C27.0978 23.7735 22.4781 28.0253 16.8001 28.0253C11.122 28.0253 6.50269 23.7735 6.50269 18.5471C6.50269 13.3207 11.1217 9.0688 16.8001 9.0688V9.0688Z" fill="#3F3679"/>
<path d="M15.7787 23.2432C14.655 23.2432 13.741 22.4019 13.741 21.3675C13.741 21.1052 13.5103 20.8929 13.2253 20.8929C12.9404 20.8929 12.7097 21.1052 12.7097 21.3675C12.7097 22.9252 14.0864 24.1924 15.7787 24.1924H16.2844V24.6582C16.2844 24.9205 16.515 25.1328 16.8 25.1328C17.085 25.1328 17.3156 24.9205 17.3156 24.6582V24.1924H17.8216C19.5139 24.1924 20.8906 22.9252 20.8906 21.3675V20.4275C20.8906 18.8698 19.5139 17.6026 17.8216 17.6026H17.3156V13.8507H17.8216C18.9453 13.8507 19.8594 14.692 19.8594 15.7263C19.8594 15.9886 20.09 16.201 20.375 16.201C20.66 16.201 20.8906 15.9886 20.8906 15.7263C20.8906 14.1687 19.5139 12.9015 17.8216 12.9015H17.3156V12.436C17.3156 12.1737 17.085 11.9614 16.8 11.9614C16.515 11.9614 16.2844 12.1737 16.2844 12.436V12.9015H15.7787C14.0864 12.9015 12.7097 14.1687 12.7097 15.7263C12.7097 17.284 14.0864 18.5515 15.7787 18.5515H16.2844V23.2432H15.7787ZM15.7787 17.6023C14.655 17.6023 13.741 16.7607 13.741 15.7263C13.741 14.692 14.655 13.8507 15.7787 13.8507H16.2844V17.6023H15.7787ZM17.316 18.5515H17.822C18.9457 18.5515 19.8597 19.3929 19.8597 20.4272V21.3672C19.8597 22.4016 18.9457 23.2429 17.822 23.2429H17.316V18.5515Z" fill="#3F3679"/>
<path d="M71.2001 28.9746C77.4467 28.9746 82.5287 24.2968 82.5287 18.5467C82.5287 12.797 77.4467 8.11926 71.2001 8.11926C64.9534 8.11926 59.8711 12.797 59.8711 18.5467C59.8714 24.2968 64.9534 28.9746 71.2001 28.9746ZM71.2001 9.0688C76.8781 9.0688 81.4974 13.3207 81.4974 18.5471C81.4974 23.7735 76.8781 28.0256 71.2001 28.0256C65.522 28.0256 60.9023 23.7738 60.9023 18.5471C60.9023 13.3204 65.522 9.0688 71.2001 9.0688V9.0688Z" fill="#3F3679"/>
<path d="M70.1789 23.2432C69.0551 23.2432 68.1411 22.4019 68.1411 21.3675C68.1411 21.1052 67.9105 20.8929 67.6255 20.8929C67.3405 20.8929 67.1099 21.1052 67.1099 21.3675C67.1099 22.9252 68.4866 24.1924 70.1789 24.1924H70.6849V24.6582C70.6849 24.9205 70.9155 25.1328 71.2005 25.1328C71.4855 25.1328 71.7161 24.9205 71.7161 24.6582V24.1924H72.2218C73.9141 24.1924 75.2908 22.9252 75.2908 21.3675V20.4275C75.2908 18.8698 73.9141 17.6026 72.2218 17.6026H71.7161V13.8507H72.2218C73.3455 13.8507 74.2595 14.692 74.2595 15.7263C74.2595 15.9886 74.4902 16.201 74.7751 16.201C75.0601 16.201 75.2908 15.9886 75.2908 15.7263C75.2908 14.1687 73.9141 12.9015 72.2218 12.9015H71.7161V12.436C71.7161 12.1737 71.4855 11.9614 71.2005 11.9614C70.9155 11.9614 70.6849 12.1737 70.6849 12.436V12.9015H70.1789C68.4866 12.9015 67.1099 14.1687 67.1099 15.7263C67.1099 17.284 68.4866 18.5515 70.1789 18.5515H70.6849V23.2432H70.1789ZM70.1789 17.6023C69.0551 17.6023 68.1411 16.7607 68.1411 15.7263C68.1411 14.692 69.0551 13.8507 70.1789 13.8507H70.6849V17.6023H70.1789ZM71.7158 18.5515H72.2214C73.3452 18.5515 74.2592 19.3929 74.2592 20.4272V21.3672C74.2592 22.4016 73.3452 23.2429 72.2214 23.2429H71.7158V18.5515Z" fill="#3F3679"/>
</svg>
